<?xml version="1.0" encoding="UTF-8"?><svg xmlns="http://www.w3.org/2000/svg" xmlns:xlink="http://www.w3.org/1999/xlink" fill-opacity="1" color-rendering="auto" color-interpolation="auto" text-rendering="auto" stroke="black" stroke-linecap="square" width="921" stroke-miterlimit="10" shape-rendering="auto" stroke-opacity="1" fill="black" stroke-dasharray="none" font-weight="normal" stroke-width="1" height="2340" font-family="'Dialog'" font-style="normal" stroke-linejoin="miter" font-size="12px" stroke-dashoffset="0" image-rendering="auto">
  <!--Generated by ySVG 2.6-->
  <defs id="genericDefs"/>
  <g>
    <defs id="defs1">
      <clipPath clipPathUnits="userSpaceOnUse" id="clipPath1">
        <path d="M0 0 L921 0 L921 2340 L0 2340 L0 0 Z"/>
      </clipPath>
      <clipPath clipPathUnits="userSpaceOnUse" id="clipPath2">
        <path d="M170 120 L1091 120 L1091 2460 L170 2460 L170 120 Z"/>
      </clipPath>
    </defs>
    <g fill="white" text-rendering="geometricPrecision" shape-rendering="geometricPrecision" transform="translate(-170,-120)" stroke="white">
      <rect x="170" width="921" height="2340" y="120" clip-path="url(#clipPath2)" stroke="none"/>
    </g>
    <g text-rendering="geometricPrecision" stroke-miterlimit="1.45" shape-rendering="geometricPrecision" transform="matrix(1,0,0,1,-170,-120)" stroke-linecap="butt">
      <rect fill="none" x="380.44" width="247.68" height="40" y="216.5218" clip-path="url(#clipPath2)"/>
      <path fill="none" d="M390.44 216.5218 L390.44 256.5218 M618.12 216.5218 L618.12 256.5218 M390.44 216.5218 Z" clip-path="url(#clipPath2)"/>
      <text x="467.7578" xml:space="preserve" y="241.1778" clip-path="url(#clipPath2)" font-family="sans-serif" stroke="none">Вызов sub_1</text>
    </g>
    <g text-rendering="geometricPrecision" stroke-miterlimit="1.45" shape-rendering="geometricPrecision" transform="matrix(1,0,0,1,-170,-120)" stroke-linecap="butt">
      <ellipse rx="123.84" fill="none" ry="20" clip-path="url(#clipPath2)" cx="504.28" cy="155.2418"/>
      <text x="482.3259" xml:space="preserve" y="159.8978" clip-path="url(#clipPath2)" font-family="sans-serif" stroke="none">Начало</text>
    </g>
    <g text-rendering="geometricPrecision" stroke-miterlimit="1.45" shape-rendering="geometricPrecision" transform="matrix(1,0,0,1,-170,-120)" stroke-linecap="butt">
      <path fill="none" d="M380.44 286.5218 L628.12 286.5218 L628.12 341.8818 L380.44 341.8818 Z" clip-path="url(#clipPath2)"/>
      <text x="435.1955" xml:space="preserve" y="310.6857" clip-path="url(#clipPath2)" font-family="sans-serif" stroke="none">Сохранение регистров </text>
      <text x="473.2298" xml:space="preserve" y="327.0298" clip-path="url(#clipPath2)" font-family="sans-serif" stroke="none">es,ds,ax,dx</text>
    </g>
    <g text-rendering="geometricPrecision" stroke-miterlimit="1.45" shape-rendering="geometricPrecision" transform="matrix(1,0,0,1,-170,-120)" stroke-linecap="butt">
      <path fill="none" d="M380.44 371.8818 L628.12 371.8818 L628.12 447.0818 L380.44 447.0818 Z" clip-path="url(#clipPath2)"/>
      <text x="442.1376" xml:space="preserve" y="389.6216" clip-path="url(#clipPath2)" font-family="sans-serif" stroke="none">Установка значений </text>
      <text x="437.6136" xml:space="preserve" y="405.9657" clip-path="url(#clipPath2)" font-family="sans-serif" stroke="none">сегментных регистров</text>
      <text x="474.1178" xml:space="preserve" y="422.3098" clip-path="url(#clipPath2)" font-family="sans-serif" stroke="none">DS - 0040h</text>
      <text x="475.1618" xml:space="preserve" y="438.654" clip-path="url(#clipPath2)" font-family="sans-serif" stroke="none">ES - 0000h</text>
    </g>
    <g text-rendering="geometricPrecision" stroke-miterlimit="1.45" shape-rendering="geometricPrecision" transform="matrix(1,0,0,1,-170,-120)" stroke-linecap="butt">
      <path fill="none" d="M380.44 477.0818 L628.12 477.0818 L628.12 532.4418 L380.44 532.4418 Z" clip-path="url(#clipPath2)"/>
      <text x="421.3474" xml:space="preserve" y="493.0737" clip-path="url(#clipPath2)" font-family="sans-serif" stroke="none">Инкремент младшего слова</text>
      <text x="428.5115" xml:space="preserve" y="509.4178" clip-path="url(#clipPath2)" font-family="sans-serif" stroke="none">счетчика тиков по адресу</text>
      <text x="485.1759" xml:space="preserve" y="525.7619" clip-path="url(#clipPath2)" font-family="sans-serif" stroke="none">ds:6Ch</text>
    </g>
    <g text-rendering="geometricPrecision" stroke-miterlimit="1.45" shape-rendering="geometricPrecision" transform="matrix(1,0,0,1,-170,-120)" stroke-linecap="butt">
      <path fill="none" d="M504.28 567.9732 L628.12 605.5732 L504.28 643.1732 L380.44 605.5732 Z" clip-path="url(#clipPath2)"/>
      <text x="457.7377" xml:space="preserve" y="602.0572" clip-path="url(#clipPath2)" font-family="sans-serif" stroke="none">Mладшее слово</text>
      <text x="446.2836" xml:space="preserve" y="618.4013" clip-path="url(#clipPath2)" font-family="sans-serif" stroke="none">счетчика тиков = 0?</text>
    </g>
    <g text-rendering="geometricPrecision" stroke-miterlimit="1.45" shape-rendering="geometricPrecision" transform="matrix(1,0,0,1,-170,-120)" stroke-linecap="butt">
      <path fill="none" d="M645.4538 679.7826 L867.5038 679.7826 L867.5038 735.1426 L645.4538 735.1426 Z" clip-path="url(#clipPath2)"/>
      <text x="675.5502" xml:space="preserve" y="695.7745" clip-path="url(#clipPath2)" font-family="sans-serif" stroke="none">Инкремент старшего слова</text>
      <text x="680.7103" xml:space="preserve" y="712.1186" clip-path="url(#clipPath2)" font-family="sans-serif" stroke="none">счетчика тиков по адресу</text>
      <text x="737.8307" xml:space="preserve" y="728.4627" clip-path="url(#clipPath2)" font-family="sans-serif" stroke="none">ds:6Eh</text>
    </g>
    <g text-rendering="geometricPrecision" stroke-miterlimit="1.45" shape-rendering="geometricPrecision" transform="matrix(1,0,0,1,-170,-120)" stroke-linecap="butt">
      <path fill="none" d="M504.28 841.1964 L628.12 878.7963 L504.28 916.3963 L380.44 878.7963 Z" clip-path="url(#clipPath2)"/>
      <text x="458.2357" xml:space="preserve" y="875.2803" clip-path="url(#clipPath2)" font-family="sans-serif" stroke="none">Старшее слово </text>
      <text x="442.8516" xml:space="preserve" y="891.6244" clip-path="url(#clipPath2)" font-family="sans-serif" stroke="none">счетчика тиков = 24?</text>
    </g>
    <g text-rendering="geometricPrecision" stroke-miterlimit="1.45" shape-rendering="geometricPrecision" transform="matrix(1,0,0,1,-170,-120)" stroke-linecap="butt">
      <path fill="none" d="M749.0121 948.2839 L872.8522 985.8839 L749.0121 1023.4839 L625.1722 985.8839 Z" clip-path="url(#clipPath2)"/>
      <text x="700.9099" xml:space="preserve" y="982.3679" clip-path="url(#clipPath2)" font-family="sans-serif" stroke="none">Младшее слово </text>
      <text x="679.9757" xml:space="preserve" y="998.712" clip-path="url(#clipPath2)" font-family="sans-serif" stroke="none">счетчика тиков = 0B0h?</text>
    </g>
    <g text-rendering="geometricPrecision" stroke-miterlimit="1.45" shape-rendering="geometricPrecision" transform="matrix(1,0,0,1,-170,-120)" stroke-linecap="butt">
      <path fill="none" d="M853.0341 1074.3347 L1075.0841 1074.3347 L1075.0841 1129.6947 L853.0341 1129.6947 Z" clip-path="url(#clipPath2)"/>
      <text x="899.5047" xml:space="preserve" y="1106.6708" clip-path="url(#clipPath2)" font-family="sans-serif" stroke="none">Сброс счетчика тиков</text>
    </g>
    <g text-rendering="geometricPrecision" stroke-miterlimit="1.45" shape-rendering="geometricPrecision" transform="matrix(1,0,0,1,-170,-120)" stroke-linecap="butt">
      <path fill="none" d="M853.0341 1166.6694 L1075.0841 1166.6694 L1075.0841 1222.0294 L853.0341 1222.0294 Z" clip-path="url(#clipPath2)"/>
      <text x="927.2129" xml:space="preserve" y="1190.8334" clip-path="url(#clipPath2)" font-family="sans-serif" stroke="none">Установка 1 </text>
      <text x="914.9548" xml:space="preserve" y="1207.1775" clip-path="url(#clipPath2)" font-family="sans-serif" stroke="none">по адресу ds:70h</text>
    </g>
    <g text-rendering="geometricPrecision" stroke-miterlimit="1.45" shape-rendering="geometricPrecision" transform="matrix(1,0,0,1,-170,-120)" stroke-linecap="butt">
      <path fill="none" d="M853.0341 1259.004 L1075.0841 1259.004 L1075.0841 1314.3641 L853.0341 1314.3641 Z" clip-path="url(#clipPath2)"/>
      <text x="911.9788" xml:space="preserve" y="1274.996" clip-path="url(#clipPath2)" font-family="sans-serif" stroke="none">Установка 3 бита </text>
      <text x="924.1469" xml:space="preserve" y="1291.3401" clip-path="url(#clipPath2)" font-family="sans-serif" stroke="none">регистра AL - </text>
      <text x="892.4487" xml:space="preserve" y="1307.6842" clip-path="url(#clipPath2)" font-family="sans-serif" stroke="none">флага прошедших суток</text>
    </g>
    <g text-rendering="geometricPrecision" stroke-miterlimit="1.45" shape-rendering="geometricPrecision" transform="matrix(1,0,0,1,-170,-120)" stroke-linecap="butt">
      <path fill="none" d="M393.255 1432.2042 L615.305 1432.2042 L615.305 1487.5642 L393.255 1487.5642 Z" clip-path="url(#clipPath2)"/>
      <text x="431.5655" xml:space="preserve" y="1464.5403" clip-path="url(#clipPath2)" font-family="sans-serif" stroke="none">Сохранение регистра AX</text>
    </g>
    <g text-rendering="geometricPrecision" stroke-miterlimit="1.45" shape-rendering="geometricPrecision" transform="matrix(1,0,0,1,-170,-120)" stroke-linecap="butt">
      <path fill="none" d="M393.255 1517.5642 L615.305 1517.5642 L615.305 1572.9242 L393.255 1572.9242 Z" clip-path="url(#clipPath2)"/>
      <text x="415.8994" xml:space="preserve" y="1533.5562" clip-path="url(#clipPath2)" font-family="sans-serif" stroke="none">Декремент счетчика времени</text>
      <text x="401.5953" xml:space="preserve" y="1549.9003" clip-path="url(#clipPath2)" font-family="sans-serif" stroke="none">отключения моторчика дисковода</text>
      <text x="455.1757" xml:space="preserve" y="1566.2444" clip-path="url(#clipPath2)" font-family="sans-serif" stroke="none">по адресу ds:40h</text>
    </g>
    <g text-rendering="geometricPrecision" stroke-miterlimit="1.45" shape-rendering="geometricPrecision" transform="matrix(1,0,0,1,-170,-120)" stroke-linecap="butt">
      <path fill="none" d="M504.28 1602.9242 L628.12 1640.5242 L504.28 1678.1243 L380.44 1640.5242 Z" clip-path="url(#clipPath2)"/>
      <text x="414.4294" xml:space="preserve" y="1637.0082" clip-path="url(#clipPath2)" font-family="sans-serif" stroke="none">Счетчик времени отключения</text>
      <text x="426.8075" xml:space="preserve" y="1653.3523" clip-path="url(#clipPath2)" font-family="sans-serif" stroke="none">моторчика дисковода = 0?</text>
    </g>
    <g text-rendering="geometricPrecision" stroke-miterlimit="1.45" shape-rendering="geometricPrecision" transform="matrix(1,0,0,1,-170,-120)" stroke-linecap="butt">
      <path fill="none" d="M628.12 1685.4683 L850.17 1685.4683 L850.17 1740.8282 L628.12 1740.8282 Z" clip-path="url(#clipPath2)"/>
      <text x="689.7707" xml:space="preserve" y="1701.4602" clip-path="url(#clipPath2)" font-family="sans-serif" stroke="none">Установить флаг</text>
      <text x="667.4265" xml:space="preserve" y="1717.8043" clip-path="url(#clipPath2)" font-family="sans-serif" stroke="none">отключения моторчика </text>
      <text x="708.1788" xml:space="preserve" y="1734.1484" clip-path="url(#clipPath2)" font-family="sans-serif" stroke="none">дисковода</text>
    </g>
    <g text-rendering="geometricPrecision" stroke-miterlimit="1.45" shape-rendering="geometricPrecision" transform="matrix(1,0,0,1,-170,-120)" stroke-linecap="butt">
      <path fill="none" d="M628.12 1765.5332 L850.17 1765.5332 L850.17 1820.8932 L628.12 1820.8932 Z" clip-path="url(#clipPath2)"/>
      <text x="673.5046" xml:space="preserve" y="1781.525" clip-path="url(#clipPath2)" font-family="sans-serif" stroke="none">Отправка в порт 3F2h </text>
      <text x="673.1625" xml:space="preserve" y="1797.8691" clip-path="url(#clipPath2)" font-family="sans-serif" stroke="none">команды отключения </text>
      <text x="694.2947" xml:space="preserve" y="1814.2133" clip-path="url(#clipPath2)" font-family="sans-serif" stroke="none">моторчика 0Ch</text>
    </g>
    <g text-rendering="geometricPrecision" stroke-miterlimit="1.45" shape-rendering="geometricPrecision" transform="matrix(1,0,0,1,-170,-120)" stroke-linecap="butt">
      <path fill="none" d="M504.28 1891.6738 L628.12 1929.2739 L504.28 1966.8739 L380.44 1929.2739 Z" clip-path="url(#clipPath2)"/>
      <text x="411.1114" xml:space="preserve" y="1933.9299" clip-path="url(#clipPath2)" font-family="sans-serif" stroke="none">Флаг PF установлен в ds:[314h]?</text>
    </g>
    <g text-rendering="geometricPrecision" stroke-miterlimit="1.45" shape-rendering="geometricPrecision" transform="matrix(1,0,0,1,-170,-120)" stroke-linecap="butt">
      <path fill="none" d="M628.12 1980.7742 L850.17 1980.7742 L850.17 2036.1343 L628.12 2036.1343 Z" clip-path="url(#clipPath2)"/>
      <text x="673.1566" xml:space="preserve" y="2013.1102" clip-path="url(#clipPath2)" font-family="sans-serif" stroke="none">Вызов перывания 1Ch</text>
    </g>
    <g text-rendering="geometricPrecision" stroke-miterlimit="1.45" shape-rendering="geometricPrecision" transform="matrix(1,0,0,1,-170,-120)" stroke-linecap="butt">
      <path fill="none" d="M185.2301 1980.7742 L407.2801 1980.7742 L407.2801 2036.1343 L185.2301 2036.1343 Z" clip-path="url(#clipPath2)"/>
      <text x="192.2323" xml:space="preserve" y="2013.1102" clip-path="url(#clipPath2)" font-family="sans-serif" stroke="none">Косвенный вызов прерывания 1Ch</text>
    </g>
    <g text-rendering="geometricPrecision" stroke-miterlimit="1.45" shape-rendering="geometricPrecision" transform="matrix(1,0,0,1,-170,-120)" stroke-linecap="butt">
      <path fill="none" d="M393.255 2210.4202 L615.305 2210.4202 L615.305 2265.7803 L393.255 2265.7803 Z" clip-path="url(#clipPath2)"/>
      <text x="407.8593" xml:space="preserve" y="2242.7563" clip-path="url(#clipPath2)" font-family="sans-serif" stroke="none">Сброс контроллера прерываний</text>
    </g>
    <g text-rendering="geometricPrecision" stroke-miterlimit="1.45" shape-rendering="geometricPrecision" transform="matrix(1,0,0,1,-170,-120)" stroke-linecap="butt">
      <path fill="none" d="M393.255 2307.3843 L615.305 2307.3843 L615.305 2362.7444 L393.255 2362.7444 Z" clip-path="url(#clipPath2)"/>
      <text x="424.5994" xml:space="preserve" y="2331.5483" clip-path="url(#clipPath2)" font-family="sans-serif" stroke="none">Восстановление значения </text>
      <text x="436.9475" xml:space="preserve" y="2347.8923" clip-path="url(#clipPath2)" font-family="sans-serif" stroke="none">регистров dx, ax, ds, es</text>
    </g>
    <g text-rendering="geometricPrecision" stroke-miterlimit="1.45" shape-rendering="geometricPrecision" transform="matrix(1,0,0,1,-170,-120)" stroke-linecap="butt">
      <rect x="393.255" y="2404.3483" clip-path="url(#clipPath2)" fill="none" width="222.05" rx="20" ry="20" height="40"/>
      <text x="485.9439" xml:space="preserve" y="2429.0044" clip-path="url(#clipPath2)" font-family="sans-serif" stroke="none">Конец</text>
    </g>
    <g text-rendering="geometricPrecision" stroke-miterlimit="1.45" shape-rendering="geometricPrecision" transform="matrix(1,0,0,1,-170,-120)" stroke-linecap="butt">
      <rect fill="none" x="393.255" width="222.05" height="40" y="2124.4254" clip-path="url(#clipPath2)"/>
      <path fill="none" d="M403.255 2124.4253 L403.255 2164.4253 M605.305 2124.4253 L605.305 2164.4253 M403.255 2124.4253 Z" clip-path="url(#clipPath2)"/>
      <text x="467.7578" xml:space="preserve" y="2149.0815" clip-path="url(#clipPath2)" font-family="sans-serif" stroke="none">Вызов sub_1</text>
    </g>
    <g text-rendering="geometricPrecision" stroke-miterlimit="1.45" shape-rendering="geometricPrecision" transform="matrix(1,0,0,1,-170,-120)" stroke-linecap="butt">
      <path fill="none" d="M504.28 175.2046 L504.28 208.4919" clip-path="url(#clipPath2)"/>
    </g>
    <g text-rendering="geometricPrecision" stroke-miterlimit="1.45" shape-rendering="geometricPrecision" transform="matrix(1,0,0,1,-170,-120)" stroke-linecap="butt">
      <path d="M504.28 216.4919 L509.28 204.4919 L504.28 207.4919 L499.28 204.4919 Z" stroke="none" clip-path="url(#clipPath2)"/>
      <path fill="none" d="M504.28 256.5107 L504.28 278.5112" clip-path="url(#clipPath2)"/>
      <path d="M504.28 286.5112 L509.28 274.5112 L504.28 277.5112 L499.28 274.5112 Z" clip-path="url(#clipPath2)" stroke="none"/>
      <path fill="none" d="M504.28 341.8832 L504.28 363.8867" clip-path="url(#clipPath2)"/>
      <path d="M504.28 371.8867 L509.28 359.8867 L504.28 362.8867 L499.28 359.8867 Z" clip-path="url(#clipPath2)" stroke="none"/>
      <path fill="none" d="M504.28 447.1192 L504.28 469.0945" clip-path="url(#clipPath2)"/>
      <path d="M504.28 477.0945 L509.28 465.0945 L504.28 468.0945 L499.28 465.0945 Z" clip-path="url(#clipPath2)" stroke="none"/>
      <path fill="none" d="M504.28 532.475 L504.28 559.9891" clip-path="url(#clipPath2)"/>
      <path d="M504.28 567.9891 L509.28 555.9891 L504.28 558.9891 L499.28 555.9891 Z" clip-path="url(#clipPath2)" stroke="none"/>
      <path fill="none" d="M628.132 605.5732 L756.4788 605.5732 L756.4788 671.7515" clip-path="url(#clipPath2)"/>
      <path d="M756.4788 679.7515 L761.4788 667.7515 L756.4788 670.7515 L751.4788 667.7515 Z" clip-path="url(#clipPath2)" stroke="none"/>
      <text x="692.0434" xml:space="preserve" y="640.2292" clip-path="url(#clipPath2)" font-family="sans-serif" stroke="none">Да</text>
      <path fill="none" d="M756.4788 735.1423 L756.4788 791.4451 L504.28 791.4451 L504.28 833.2199" clip-path="url(#clipPath2)"/>
      <path d="M504.28 841.2199 L509.28 829.2199 L504.28 832.2199 L499.28 829.2199 Z" clip-path="url(#clipPath2)" stroke="none"/>
      <path fill="none" d="M389.4319 608.3413 L389.4319 791.4451 L504.28 791.4451 L504.28 833.2199" clip-path="url(#clipPath2)"/>
      <path d="M504.28 841.2199 L509.28 829.2199 L504.28 832.2199 L499.28 829.2199 Z" clip-path="url(#clipPath2)" stroke="none"/>
      <path fill="none" d="M628.1099 878.7963 L749.0121 878.7963 L749.0121 940.2621" clip-path="url(#clipPath2)"/>
      <path d="M749.0121 948.2621 L754.0121 936.2621 L749.0121 939.2621 L744.0121 936.2621 Z" clip-path="url(#clipPath2)" stroke="none"/>
      <text x="688.3101" xml:space="preserve" y="913.4524" clip-path="url(#clipPath2)" font-family="sans-serif" stroke="none">Да</text>
      <path fill="none" d="M872.8374 985.8839 L964.0591 985.8839 L964.0591 1066.3146" clip-path="url(#clipPath2)"/>
      <path d="M964.0591 1074.3146 L969.0591 1062.3146 L964.0591 1065.3146 L959.0591 1062.3146 Z" clip-path="url(#clipPath2)" stroke="none"/>
      <text x="918.1996" xml:space="preserve" y="1020.54" clip-path="url(#clipPath2)" font-family="sans-serif" stroke="none">Да</text>
      <path fill="none" d="M964.0591 1129.652 L964.0591 1158.6445" clip-path="url(#clipPath2)"/>
      <path d="M964.0591 1166.6445 L969.0591 1154.6445 L964.0591 1157.6445 L959.0591 1154.6445 Z" clip-path="url(#clipPath2)" stroke="none"/>
      <path fill="none" d="M964.0591 1221.9867 L964.0591 1250.9791" clip-path="url(#clipPath2)"/>
      <path d="M964.0591 1258.9791 L969.0591 1246.9791 L964.0591 1249.9791 L959.0591 1246.9791 Z" clip-path="url(#clipPath2)" stroke="none"/>
      <path fill="none" d="M964.0591 1314.3782 L964.0591 1357.1406 L773.2309 1357.1406 L773.2309 1394.7042 L504.28 1394.7042 L504.28 1424.2273" clip-path="url(#clipPath2)"/>
      <path d="M504.28 1432.2273 L509.28 1420.2273 L504.28 1423.2273 L499.28 1420.2273 Z" clip-path="url(#clipPath2)" stroke="none"/>
      <path fill="none" d="M625.1318 985.8839 L581.8246 985.8839 L515.7803 985.8839 L515.7803 1354.0156 L515.7803 1357.1406 L773.2309 1357.1406 L773.2309 1394.7042 L504.28 1394.7042 L504.28 1424.2273" clip-path="url(#clipPath2)"/>
      <path d="M504.28 1432.2273 L509.28 1420.2273 L504.28 1423.2273 L499.28 1420.2273 Z" clip-path="url(#clipPath2)" stroke="none"/>
      <path fill="none" d="M380.4018 878.7963 L323.6445 878.7963 L323.6445 1394.7042 L504.28 1394.7042 L504.28 1424.2273" clip-path="url(#clipPath2)"/>
      <path d="M504.28 1432.2273 L509.28 1420.2273 L504.28 1423.2273 L499.28 1420.2273 Z" clip-path="url(#clipPath2)" stroke="none"/>
      <path fill="none" d="M504.28 1487.6012 L504.28 1509.5767" clip-path="url(#clipPath2)"/>
      <path d="M504.28 1517.5767 L509.28 1505.5767 L504.28 1508.5767 L499.28 1505.5767 Z" clip-path="url(#clipPath2)" stroke="none"/>
      <path fill="none" d="M504.28 1572.9257 L504.28 1594.9291" clip-path="url(#clipPath2)"/>
      <path d="M504.28 1602.9291 L509.28 1590.9291 L504.28 1593.9291 L499.28 1590.9291 Z" clip-path="url(#clipPath2)" stroke="none"/>
      <path fill="none" d="M628.1059 1640.5242 L739.145 1640.5242 L739.145 1677.4532" clip-path="url(#clipPath2)"/>
      <path d="M739.145 1685.4532 L744.145 1673.4532 L739.145 1676.4532 L734.145 1673.4532 Z" clip-path="url(#clipPath2)" stroke="none"/>
      <text x="683.3765" xml:space="preserve" y="1675.1803" clip-path="url(#clipPath2)" font-family="sans-serif" stroke="none">Да</text>
      <path fill="none" d="M739.145 1740.8661 L739.145 1757.5316" clip-path="url(#clipPath2)"/>
      <path d="M739.145 1765.5316 L744.145 1753.5316 L739.145 1756.5316 L734.145 1753.5316 Z" clip-path="url(#clipPath2)" stroke="none"/>
      <path fill="none" d="M739.145 1820.9073 L739.145 1850.2157 L504.28 1850.2157 L504.28 1883.6364" clip-path="url(#clipPath2)"/>
      <path d="M504.28 1891.6364 L509.28 1879.6364 L504.28 1882.6364 L499.28 1879.6364 Z" clip-path="url(#clipPath2)" stroke="none"/>
      <path fill="none" d="M380.457 1640.5242 L324.2378 1640.5242 L324.2378 1850.2157 L504.28 1850.2157 L504.28 1883.6364" clip-path="url(#clipPath2)"/>
      <path d="M504.28 1891.6364 L509.28 1879.6364 L504.28 1882.6364 L499.28 1879.6364 Z" clip-path="url(#clipPath2)" stroke="none"/>
      <path fill="none" d="M628.1059 1929.2739 L739.145 1929.2739 L739.145 1972.8107" clip-path="url(#clipPath2)"/>
      <path d="M739.145 1980.8107 L744.145 1968.8107 L739.145 1971.8107 L734.145 1968.8107 Z" clip-path="url(#clipPath2)" stroke="none"/>
      <text x="683.3765" xml:space="preserve" y="1963.9299" clip-path="url(#clipPath2)" font-family="sans-serif" stroke="none">Да</text>
      <path fill="none" d="M380.4351 1929.2739 L296.2551 1929.2739 L296.2551 1972.8107" clip-path="url(#clipPath2)"/>
      <path d="M296.2551 1980.8107 L301.2551 1968.8107 L296.2551 1971.8107 L291.2551 1968.8107 Z" clip-path="url(#clipPath2)" stroke="none"/>
      <path fill="none" d="M504.28 2265.7976 L504.28 2299.3643" clip-path="url(#clipPath2)"/>
      <path d="M504.28 2307.3643 L509.28 2295.3643 L504.28 2298.3643 L499.28 2295.3643 Z" clip-path="url(#clipPath2)" stroke="none"/>
      <path fill="none" d="M504.28 2362.7476 L504.28 2396.3462" clip-path="url(#clipPath2)"/>
      <path d="M504.28 2404.3462 L509.28 2392.3462 L504.28 2395.3462 L499.28 2392.3462 Z" clip-path="url(#clipPath2)" stroke="none"/>
      <path fill="none" d="M296.2551 2036.1337 L296.2551 2072.2197 L504.28 2072.2197 L504.28 2116.4348" clip-path="url(#clipPath2)"/>
      <path d="M504.28 2124.4348 L509.28 2112.4348 L504.28 2115.4348 L499.28 2112.4348 Z" clip-path="url(#clipPath2)" stroke="none"/>
      <path fill="none" d="M739.145 2036.1337 L739.145 2072.2197 L504.28 2072.2197 L504.28 2116.4348" clip-path="url(#clipPath2)"/>
      <path d="M504.28 2124.4348 L509.28 2112.4348 L504.28 2115.4348 L499.28 2112.4348 Z" clip-path="url(#clipPath2)" stroke="none"/>
      <path fill="none" d="M504.28 2164.4136 L504.28 2202.4319" clip-path="url(#clipPath2)"/>
      <path d="M504.28 2210.4319 L509.28 2198.4319 L504.28 2201.4319 L499.28 2198.4319 Z" clip-path="url(#clipPath2)" stroke="none"/>
    </g>
  </g>
</svg>
