<?xml version="1.0" encoding="UTF-8"?><svg xmlns="http://www.w3.org/2000/svg" xmlns:xlink="http://www.w3.org/1999/xlink" fill-opacity="1" color-rendering="auto" color-interpolation="auto" text-rendering="auto" stroke="black" stroke-linecap="square" width="776" stroke-miterlimit="10" shape-rendering="auto" stroke-opacity="1" fill="black" stroke-dasharray="none" font-weight="normal" stroke-width="1" height="892" font-family="'Dialog'" font-style="normal" stroke-linejoin="miter" font-size="12px" stroke-dashoffset="0" image-rendering="auto">
  <!--Generated by ySVG 2.6-->
  <defs id="genericDefs"/>
  <g>
    <defs id="defs1">
      <clipPath clipPathUnits="userSpaceOnUse" id="clipPath1">
        <path d="M0 0 L776 0 L776 892 L0 892 L0 0 Z"/>
      </clipPath>
      <clipPath clipPathUnits="userSpaceOnUse" id="clipPath2">
        <path d="M739 462 L1515 462 L1515 1354 L739 1354 L739 462 Z"/>
      </clipPath>
    </defs>
    <g fill="white" text-rendering="geometricPrecision" shape-rendering="geometricPrecision" transform="translate(-739,-462)" stroke="white">
      <rect x="739" width="776" height="892" y="462" clip-path="url(#clipPath2)" stroke="none"/>
    </g>
    <g text-rendering="geometricPrecision" stroke-miterlimit="1.45" shape-rendering="geometricPrecision" transform="matrix(1,0,0,1,-739,-462)" stroke-linecap="butt">
      <ellipse rx="123.84" fill="none" ry="20" clip-path="url(#clipPath2)" cx="1120.8978" cy="497.1337"/>
      <text x="1098.9437" xml:space="preserve" y="501.7898" clip-path="url(#clipPath2)" font-family="sans-serif" stroke="none">Начало</text>
    </g>
    <g text-rendering="geometricPrecision" stroke-miterlimit="1.45" shape-rendering="geometricPrecision" transform="matrix(1,0,0,1,-739,-462)" stroke-linecap="butt">
      <path fill="none" d="M997.0578 643.7222 L1244.7378 643.7222 L1244.7378 699.0822 L997.0578 699.0822 Z" clip-path="url(#clipPath2)"/>
      <text x="1059.2594" xml:space="preserve" y="659.7142" clip-path="url(#clipPath2)" font-family="sans-serif" stroke="none">Установка значения </text>
      <text x="1054.3754" xml:space="preserve" y="676.0583" clip-path="url(#clipPath2)" font-family="sans-serif" stroke="none">сегментного регистра </text>
      <text x="1090.7356" xml:space="preserve" y="692.4024" clip-path="url(#clipPath2)" font-family="sans-serif" stroke="none">DS - 0040h</text>
    </g>
    <g text-rendering="geometricPrecision" stroke-miterlimit="1.45" shape-rendering="geometricPrecision" transform="matrix(1,0,0,1,-739,-462)" stroke-linecap="butt">
      <path fill="none" d="M997.0578 552.748 L1244.7378 552.748 L1244.7378 608.108 L997.0578 608.108 Z" clip-path="url(#clipPath2)"/>
      <text x="1033.6212" xml:space="preserve" y="585.084" clip-path="url(#clipPath2)" font-family="sans-serif" stroke="none">Сохранение регистров DS, AX</text>
    </g>
    <g text-rendering="geometricPrecision" stroke-miterlimit="1.45" shape-rendering="geometricPrecision" transform="matrix(1,0,0,1,-739,-462)" stroke-linecap="butt">
      <path fill="none" d="M997.0578 734.6965 L1244.7378 734.6965 L1244.7378 790.0565 L997.0578 790.0565 Z" clip-path="url(#clipPath2)"/>
      <text x="1045.2194" xml:space="preserve" y="758.8605" clip-path="url(#clipPath2)" font-family="sans-serif" stroke="none">Загрузка младшего байта</text>
      <text x="1058.4974" xml:space="preserve" y="775.2046" clip-path="url(#clipPath2)" font-family="sans-serif" stroke="none">регистра флагов в ah</text>
    </g>
    <g text-rendering="geometricPrecision" stroke-miterlimit="1.45" shape-rendering="geometricPrecision" transform="matrix(1,0,0,1,-739,-462)" stroke-linecap="butt">
      <path fill="none" d="M1120.8978 831.8511 L1244.7378 869.4511 L1120.8978 907.0511 L997.0578 869.4511 Z" clip-path="url(#clipPath2)"/>
      <text x="1036.2312" xml:space="preserve" y="865.9351" clip-path="url(#clipPath2)" font-family="sans-serif" stroke="none">Флаг DF и старший бит IOPL </text>
      <text x="1051.1293" xml:space="preserve" y="882.2792" clip-path="url(#clipPath2)" font-family="sans-serif" stroke="none">установлены в ds:314h?</text>
    </g>
    <g text-rendering="geometricPrecision" stroke-miterlimit="1.45" shape-rendering="geometricPrecision" transform="matrix(1,0,0,1,-739,-462)" stroke-linecap="butt">
      <path fill="none" d="M1251.8665 981.7505 L1499.5465 981.7505 L1499.5465 1037.1105 L1251.8665 1037.1105 Z" clip-path="url(#clipPath2)"/>
      <text x="1292.5519" xml:space="preserve" y="1005.9145" clip-path="url(#clipPath2)" font-family="sans-serif" stroke="none">Сброс флага прерывания IF </text>
      <text x="1323.17" xml:space="preserve" y="1022.2586" clip-path="url(#clipPath2)" font-family="sans-serif" stroke="none">по адресу ds:314h</text>
    </g>
    <g text-rendering="geometricPrecision" stroke-miterlimit="1.45" shape-rendering="geometricPrecision" transform="matrix(1,0,0,1,-739,-462)" stroke-linecap="butt">
      <path fill="none" d="M754.5331 981.7505 L1002.2131 981.7505 L1002.2131 1037.1105 L754.5331 1037.1105 Z" clip-path="url(#clipPath2)"/>
      <text x="775.3824" xml:space="preserve" y="1005.9145" clip-path="url(#clipPath2)" font-family="sans-serif" stroke="none">Запрет маскируемых прерываний </text>
      <text x="836.9008" xml:space="preserve" y="1022.2586" clip-path="url(#clipPath2)" font-family="sans-serif" stroke="none">с помощью cli</text>
    </g>
    <g text-rendering="geometricPrecision" stroke-miterlimit="1.45" shape-rendering="geometricPrecision" transform="matrix(1,0,0,1,-739,-462)" stroke-linecap="butt">
      <path fill="none" d="M997.0578 1121.7738 L1244.7378 1121.7738 L1244.7378 1177.1338 L997.0578 1177.1338 Z" clip-path="url(#clipPath2)"/>
      <text x="1033.3752" xml:space="preserve" y="1154.1097" clip-path="url(#clipPath2)" font-family="sans-serif" stroke="none">Загрузка AH в регистр флагов</text>
    </g>
    <g text-rendering="geometricPrecision" stroke-miterlimit="1.45" shape-rendering="geometricPrecision" transform="matrix(1,0,0,1,-739,-462)" stroke-linecap="butt">
      <path fill="none" d="M997.0578 1207.1338 L1244.7378 1207.1338 L1244.7378 1262.4938 L997.0578 1262.4938 Z" clip-path="url(#clipPath2)"/>
      <text x="1040.7133" xml:space="preserve" y="1231.2977" clip-path="url(#clipPath2)" font-family="sans-serif" stroke="none">Восстановление значений </text>
      <text x="1071.1035" xml:space="preserve" y="1247.6418" clip-path="url(#clipPath2)" font-family="sans-serif" stroke="none">регистров AX, DS</text>
    </g>
    <g text-rendering="geometricPrecision" stroke-miterlimit="1.45" shape-rendering="geometricPrecision" transform="matrix(1,0,0,1,-739,-462)" stroke-linecap="butt">
      <rect x="1009.8728" y="1298.544" clip-path="url(#clipPath2)" fill="none" width="222.05" rx="20" ry="20" height="40"/>
      <text x="1102.5616" xml:space="preserve" y="1323.2001" clip-path="url(#clipPath2)" font-family="sans-serif" stroke="none">Конец</text>
    </g>
    <g text-rendering="geometricPrecision" stroke-miterlimit="1.45" shape-rendering="geometricPrecision" transform="matrix(1,0,0,1,-739,-462)" stroke-linecap="butt">
      <path fill="none" d="M1120.8978 517.1032 L1120.8978 544.7543" clip-path="url(#clipPath2)"/>
    </g>
    <g text-rendering="geometricPrecision" stroke-miterlimit="1.45" shape-rendering="geometricPrecision" transform="matrix(1,0,0,1,-739,-462)" stroke-linecap="butt">
      <path d="M1120.8978 552.7543 L1125.8978 540.7543 L1120.8978 543.7543 L1115.8978 540.7543 Z" stroke="none" clip-path="url(#clipPath2)"/>
      <path fill="none" d="M1120.8978 608.1023 L1120.8978 635.7394" clip-path="url(#clipPath2)"/>
      <path d="M1120.8978 643.7394 L1125.8978 631.7394 L1120.8978 634.7394 L1115.8978 631.7394 Z" clip-path="url(#clipPath2)" stroke="none"/>
      <path fill="none" d="M1120.8978 699.0765 L1120.8978 726.7137" clip-path="url(#clipPath2)"/>
      <path d="M1120.8978 734.7137 L1125.8978 722.7137 L1120.8978 725.7137 L1115.8978 722.7137 Z" clip-path="url(#clipPath2)" stroke="none"/>
      <path fill="none" d="M1120.8978 790.0601 L1120.8978 823.8877" clip-path="url(#clipPath2)"/>
      <path d="M1120.8978 831.8877 L1125.8978 819.8877 L1120.8978 822.8877 L1115.8978 819.8877 Z" clip-path="url(#clipPath2)" stroke="none"/>
      <path fill="none" d="M1244.7251 869.4511 L1375.7064 869.4511 L1375.7064 973.7832" clip-path="url(#clipPath2)"/>
      <path d="M1375.7064 981.7832 L1380.7064 969.7832 L1375.7064 972.7832 L1370.7064 969.7832 Z" clip-path="url(#clipPath2)" stroke="none"/>
      <path fill="none" d="M997.0598 869.4511 L878.3731 869.4511 L878.3731 973.7832" clip-path="url(#clipPath2)"/>
      <path d="M878.3731 981.7832 L883.3731 969.7832 L878.3731 972.7832 L873.3731 969.7832 Z" clip-path="url(#clipPath2)" stroke="none"/>
      <path fill="none" d="M878.3731 1037.142 L878.3731 1074.2913 L1120.8978 1074.2913 L1120.8978 1113.7449" clip-path="url(#clipPath2)"/>
      <path d="M1120.8978 1121.7449 L1125.8978 1109.7449 L1120.8978 1112.7449 L1115.8978 1109.7449 Z" clip-path="url(#clipPath2)" stroke="none"/>
      <path fill="none" d="M1375.7064 1037.142 L1375.7064 1074.2913 L1120.8978 1074.2913 L1120.8978 1113.7449" clip-path="url(#clipPath2)"/>
      <path d="M1120.8978 1121.7449 L1125.8978 1109.7449 L1120.8978 1112.7449 L1115.8978 1109.7449 Z" clip-path="url(#clipPath2)" stroke="none"/>
      <path fill="none" d="M1120.8978 1177.1708 L1120.8978 1199.1462" clip-path="url(#clipPath2)"/>
      <path d="M1120.8978 1207.1462 L1125.8978 1195.1462 L1120.8978 1198.1462 L1115.8978 1195.1462 Z" clip-path="url(#clipPath2)" stroke="none"/>
      <path fill="none" d="M1120.8978 1262.4922 L1120.8978 1290.5372" clip-path="url(#clipPath2)"/>
      <path d="M1120.8978 1298.5372 L1125.8978 1286.5372 L1120.8978 1289.5372 L1115.8978 1286.5372 Z" clip-path="url(#clipPath2)" stroke="none"/>
    </g>
  </g>
</svg>
